<?xml version="1.0" encoding="UTF-8" standalone="no"?>
<svg
   width="96"
   height="96"
   viewBox="0 0 96 96"
   fill="none"
   version="1.1"
   id="svg62"
   sodipodi:docname="powerautomate_warning.svg"
   xml:space="preserve"
   inkscape:version="1.2.1 (9c6d41e410, 2022-07-14)"
   inkscape:export-filename="..\PAD-ico_64.png"
   inkscape:export-xdpi="64"
   inkscape:export-ydpi="64"
   xmlns:inkscape="http://www.inkscape.org/namespaces/inkscape"
   xmlns:sodipodi="http://sodipodi.sourceforge.net/DTD/sodipodi-0.dtd"
   xmlns="http://www.w3.org/2000/svg"
   xmlns:svg="http://www.w3.org/2000/svg"><sodipodi:namedview
     id="namedview64"
     pagecolor="#ffffff"
     bordercolor="#666666"
     borderopacity="1.0"
     inkscape:showpageshadow="2"
     inkscape:pageopacity="0.0"
     inkscape:pagecheckerboard="0"
     inkscape:deskcolor="#d1d1d1"
     showgrid="false"
     inkscape:zoom="9.3072917"
     inkscape:cx="80.581981"
     inkscape:cy="122.48461"
     inkscape:window-width="3840"
     inkscape:window-height="2036"
     inkscape:window-x="3828"
     inkscape:window-y="-12"
     inkscape:window-maximized="1"
     inkscape:current-layer="svg62" /><defs
     id="defs37"><filter
       id="filter0_f"
       x="-0.0094117648"
       y="-0.012631579"
       width="1.0188235"
       height="1.0252632"><feFlood
         flood-opacity="0"
         result="BackgroundImageFix"
         id="feFlood2" /><feBlend
         mode="normal"
         in="SourceGraphic"
         in2="BackgroundImageFix"
         result="shape"
         id="feBlend4" /><feGaussianBlur
         stdDeviation="0.4"
         result="effect1_foregroundBlur"
         id="feGaussianBlur6" /></filter><filter
       id="filter1_f"
       x="-0.094117647"
       y="-0.12631579"
       width="1.1882353"
       height="1.2526316"><feFlood
         flood-opacity="0"
         result="BackgroundImageFix"
         id="feFlood9" /><feBlend
         mode="normal"
         in="SourceGraphic"
         in2="BackgroundImageFix"
         result="shape"
         id="feBlend11" /><feGaussianBlur
         stdDeviation="4"
         result="effect1_foregroundBlur"
         id="feGaussianBlur13" /></filter><linearGradient
       id="paint0_linear"
       x1="43"
       y1="55"
       x2="29"
       y2="10"
       gradientUnits="userSpaceOnUse"><stop
         stop-color="#0D36A5"
         id="stop16" /><stop
         offset="1"
         stop-color="#1152D4"
         id="stop18" /></linearGradient><linearGradient
       id="paint1_linear"
       x1="46"
       y1="10"
       x2="46"
       y2="86"
       gradientUnits="userSpaceOnUse"><stop
         stop-color="#84CAFF"
         id="stop21" /><stop
         offset="1"
         stop-color="#61B1FB"
         id="stop23" /></linearGradient><linearGradient
       id="paint2_linear"
       x1="37.5"
       y1="10"
       x2="37.5"
       y2="86"
       gradientUnits="userSpaceOnUse"><stop
         stop-color="#3B90F5"
         id="stop26" /><stop
         offset="1"
         stop-color="#2A78EE"
         id="stop28" /></linearGradient><clipPath
       id="clip0"><rect
         width="96"
         height="96"
         fill="white"
         id="rect31" /></clipPath><clipPath
       id="clip1"><rect
         width="96"
         height="96"
         fill="white"
         id="rect34" /></clipPath><filter
       inkscape:collect="always"
       style="color-interpolation-filters:sRGB"
       id="filter958"
       x="-0.1077024"
       y="-0.10829925"
       width="1.2154048"
       height="1.2165985"><feGaussianBlur
         inkscape:collect="always"
         stdDeviation="2.3079691"
         id="feGaussianBlur960" /></filter><clipPath
       clipPathUnits="userSpaceOnUse"
       id="clipPath14"><path
         d="M 0.5,-0.5 H 595.9458 V 841.38965 H 0.5 Z"
         id="path12"
         inkscape:connector-curvature="0" /></clipPath></defs><g
     clip-path="url(#clip0)"
     id="g60"><g
       clip-path="url(#clip1)"
       id="g58"><mask
         id="mask0"
         mask-type="alpha"
         maskUnits="userSpaceOnUse"
         x="-1"
         y="10"
         width="97"
         height="76"><path
           d="M61.2116 10C62.3496 10 63.4337 10.4847 64.1925 11.3328L94.6136 45.3328C95.9723 46.8514 95.9723 49.1486 94.6136 50.6672L64.1925 84.6672C63.4337 85.5153 62.3496 86 61.2116 86H3.94634C0.488777 86 -1.34012 81.9095 0.965366 79.3328L29 48L0.965366 16.6672C-1.34012 14.0905 0.488777 10 3.94634 10H61.2116Z"
           fill="white"
           id="path39" /></mask><g
         mask="url(#mask0)"
         id="g56"><path
           d="M63 10L29 48L-5 10H63Z"
           fill="url(#paint0_linear)"
           id="path42" /><g
           filter="url(#filter0_f)"
           id="g46"><path
             d="M63 10.4L-5 86.4H63L97 48.4L63 10.4Z"
             fill="black"
             fill-opacity="0.24"
             id="path44" /></g><g
           filter="url(#filter1_f)"
           id="g50"><path
             d="M63 12L-5 88H63L97 50L63 12Z"
             fill="black"
             fill-opacity="0.32"
             id="path48" /></g><path
           d="M-5 86L63 10L97 48L63 86H-5Z"
           fill="url(#paint1_linear)"
           id="path52" /><path
           d="M-5 86L63 10L80 29L29 86H-5Z"
           fill="url(#paint2_linear)"
           id="path54" /></g></g></g><style
     type="text/css"
     id="style170">
	.st0{fill:#DB7500;}
	.st1{fill:#FFFFFF;}
</style><path
     id="path269"
     style="fill:#000000;stroke:none;stroke-width:3.19669;filter:url(#filter958)"
     class="st0"
     d="m 64.663372,39.45422 c -2.557349,0 -5.115857,1.598257 -6.394531,3.835937 L 40.048138,79.731563 c -1.278675,2.55735 -1.278031,5.434195 0.320312,7.671875 1.278675,1.918012 3.196557,3.197266 5.753906,3.197266 h 37.400391 0.958984 c 2.237681,0 3.83656,-0.958941 5.115235,-2.876953 1.278673,-2.237681 1.278673,-5.114526 0,-7.671875 L 71.05595,43.290157 C 69.777275,41.052477 67.220721,39.45422 64.663372,39.45422 Z m 0,3.195312 c 1.278675,0 2.876288,0.639938 3.515625,2.238281 -1.598344,-2.877017 -5.43486,-2.877017 -7.033203,0 0.639337,-1.598343 2.238903,-2.238281 3.517578,-2.238281 z"
     transform="matrix(0.90165961,0,0,0.90165961,-29.878052,9.1239407)" /><g
     id="g190"
     transform="matrix(2.8823257,0,0,2.8823257,3.5635103,42.894636)"><path
       class="st0"
       d="M 14.856754,13.240539 9.0878384,1.6148691 c -0.5,-0.89999996 -1.7,-0.89999996 -2.2,0 L 1.1472999,13.012162 c -0.49999996,0.9 2.6e-6,1.997855 0.9,2 l 11.9094541,0.02838 c 0.9,0.2 1.4,-0.9 0.9,-1.8 z"
       id="path172"
       style="fill:#f2cd26;fill-opacity:1"
       sodipodi:nodetypes="ccccsccc" /><path
       class="st1"
       d="m 7.9898654,1.0608078 c 0.4,0 0.9,0.2 1.1,0.7 L 14.8,13.2 C 15.2,14 14.9,15 14.1,15 H 13.9 2.1 C 1.2,15 0.7,13.9 1.2,13 L 6.8898654,1.7608078 c 0.2,-0.5 0.7,-0.7 1.1,-0.7 M 8,0 C 7.2,0 6.4,0.5 6,1.2 L 0.3,12.6 c -0.4,0.8 -0.4,1.7 0.1,2.4 0.4,0.6 1,1 1.8,1 h 11.7 0.3 c 0.7,0 1.2,-0.3 1.6,-0.9 0.4,-0.7 0.4,-1.6 0,-2.4 L 10,1.2 C 9.6,0.5 8.8,0 8,0 Z"
       id="path174"
       sodipodi:nodetypes="cccscscccscscscscccs"
       style="fill:#fcfcfc;fill-opacity:1" /><circle
       class="st1"
       cx="8"
       cy="12.4"
       r="1.3"
       id="circle176"
       style="fill:#000000;fill-opacity:1" /><path
       class="st1"
       d="M 6.8,5.699306 7.6100401,9.8 H 8.4924699 L 9.2,5.699306 c 0.4774449,-2.7671695 -2.6836787,-2.9081984 -2.4,0 z"
       id="path178"
       style="fill:#000000;fill-opacity:1"
       sodipodi:nodetypes="sccss" /></g></svg>
